<svg xmlns="http://www.w3.org/2000/svg" viewBox="0 0 1024 1024"><g fill="none" stroke-width="2"><path stroke="#2e7173" d="m614.78 340.56-73.33 48.23a.65.65 0 0 1-1-.45l-1.77-12.16a.95.79 31.7 0 0-.11-.33q-.08-.15-.24-.24-.26-.16-.5.06-10.68 9.55-19 17.66-29.89 29.13-61.42 61.98a.05.04-69.9 0 0 .03.08q.04 0 .07.01a.4.21 29.4 0 0 .33.01l72.14-56.81a.21.21 0 0 1 .34.21l-1.64 8.86a.37.37 0 0 0 .6.36l24.66-19.42a.65.65 0 0 1 1.05.51v8.9a.48.47 68 0 0 .81.35l59.12-57.64a.11.11 0 0 0-.14-.17m-42.32 8.26a.47.47 0 0 1-.31-.33l-1.19-4.78a.47.47 0 0 0-.9-.03l-1.51 4.69a.47.47 0 0 1-.33.31l-4.78 1.19a.47.47 0 0 0-.03.9l4.69 1.51a.47.47 0 0 1 .31.33l1.19 4.78a.47.47 0 0 0 .9.03l1.51-4.69a.47.47 0 0 1 .33-.31l4.78-1.19a.47.47 0 0 0 .03-.9l-4.69-1.51m-29.67.21q-.3.23-.37.92-.3 3-.95 5.39a1.07 1.05 3.2 0 1-.88.77l-4.34.63a.68.68 0 0 0-.03 1.34l3.76.7a2.09 2.09 0 0 1 1.69 1.75l.47 3.28a.88.88 0 0 0 1.52.47q.13-.14.29-.37.42-.59.43-.63.78-4.49 4.97-4.96a.41.41 0 0 0 .12-.79l-3.56-1.53a.96.93-88.9 0 1-.5-.54q-1.01-2.74-1.87-6.03a.57.45 66.6 0 0-.75-.4m-23.48 6.31-1.14 6.15a1.2 1.2 0 0 1-.81.92l-5.75 1.87a.58.58 0 0 0 .07 1.13l3.51.65a2.34 2.33 70 0 1 1.07.5q1.78 1.49 2.73 4.86a.78.78 0 0 0 1.41.2l2.7-4.32a2.05 1.98 6.1 0 1 1.07-.83l4.7-1.52a.67.67 0 0 0-.09-1.3l-3.8-.71a3.92 3.91-3.8 0 1-3.02-2.64l-1.63-5.02a.53.53 0 0 0-1.02.06m-4.68 28.97a.62.62 0 0 0 .05-1.22l-4.6-.86a1.61 1.61 0 0 1-1.24-1.08l-.96-2.99a.46.45-42.6 0 0-.85-.03l-1.37 3.18a1.62 1.57-86.7 0 1-.97.89l-3.35 1.09a.62.62 0 0 0 .07 1.2q4.47.89 5.22 5.75a.7.7 0 0 0 1.33.17l1.7-3.95a1.65 1.63-5.6 0 1 .59-.71q1.77-1.18 4.38-1.44m81.24 4.4.53-2.87a1.27 1.26-3.6 0 1 .86-.97l2.25-.73a.54.54 0 0 0-.07-1.05l-2.91-.54a.85.84-89.1 0 1-.68-.71l-.27-1.86a.64.64 0 0 0-1.19-.22q-.49.9-.54 2.34a.95.94 82.5 0 1-.65.86l-1.62.53a.69.69 0 0 0 .24 1.35q3.22-.15 3.11 3.43 0 .02.13.31.07.18.14.28a.37.37 0 0 0 .67-.15m-332.13 48.88a1.53 1.53 0 0 0 .86 1.85l15.21 6.54a1.43 1.42 30 0 0 1.71-.45q1.97-2.65 4.09-6.92 4.63-9.29 9.06-18.41 2.67-5.51 2.74-8.59.2-8.47-4.23-15.92a.77.76 67.6 0 0-.83-.35q-7.75 1.77-14.36 6.31a3.84 3.58-.3 0 0-.83.78q-1.75 2.23-2.05 2.98-6.2 15.41-11.37 32.18m303.48-32.92q-.73 2.45-1.39 5.14c-.92 3.76-4.63 3.51-8.38 4.22a.62.62 0 0 0-.05 1.21q2.98.84 5.33 1.54c3.07.91 3.2 5.14 3.86 7.33a.56.56 0 0 0 1.04.08q1.18-2.46 1.77-4.06c1.07-2.95 5.8-4.31 8.83-5.32a.66.65-47.9 0 0-.06-1.26q-1.73-.37-4.93-1.02c-3.48-.69-4.29-4.53-5.14-7.84a.46.46 0 0 0-.88-.02m-32.04 18.49a.32.32 0 0 1-.2-.19l-1.38-3.9a.32.32 0 0 0-.6.01l-1.33 3.91a.32.32 0 0 1-.19.2l-3.9 1.38a.32.32 0 0 0 .01.6l3.91 1.33a.32.32 0 0 1 .2.19l1.38 3.9a.32.32 0 0 0 .6-.01l1.33-3.91a.32.32 0 0 1 .19-.2l3.9-1.38a.32.32 0 0 0-.01-.6l-3.91-1.33m-271.22.6c-5.39 1.05-8.25 1.65-10.42 6.3q-3.19 6.84-6.13 15.55a.12.12 0 0 0 .18.14l10.15-6.68a2.4 2.4 0 0 0 .91-1.08l5.84-13.57a.48.48 0 0 0-.53-.66" vector-effect="non-scaling-stroke"/><path stroke="#899295" d="M307.49 477.61q-2.92.18-10.49.01c-2.94-.07-3.98 2.18-3.95 5.12q.09 9.11.06 15.56-.02 4.58 4.28 4.85 3.59.23 10.23-.02a1.02 1.02 0 0 1 1.05.84q.16.85.16 2.53.06 56.6-.12 66.25-.09 5.3 5.31 5.33 17.17.1 18.59.17 2.85.13 4.18-1.03 2.07-1.8 2.07-3.73-.02-34.28.03-69.53a.66.65-90 0 1 .64-.65q8.98-.04 11.71-.14c4.22-.16 7.41-.46 7.28-5.15q-.01-.21.02-16.79a2.31 2.22 32.5 0 0-.25-1.03q-1.26-2.41-3.58-2.52-4.07-.18-15.31.03a.64.64 0 0 1-.65-.6c-.54-8.57-.71-18.51 10.5-19.41q2.31-.18 8.23-.18 3.03 0 4.25-2.43a2.24 2.16 59.8 0 0 .23-.94q.06-5.34-.01-15.4c-.03-3.66-1.49-5.87-5.16-6.06q-7.92-.42-15.76.05c-20.09 1.19-31.85 15.15-32.35 34.79q-.18 7.02-.5 9.43a.75.74-88.1 0 1-.69.65m104.88 25.84q5.32-.37 12.15-.22c3.82.08 6.83-.72 6.77-5q-.11-8.27-.12-17.49a1.88 1.87-59.5 0 0-.23-.9q-1.11-2.06-3.22-2.14-3.46-.13-15.04.01a.86.86 0 0 1-.87-.82c-.21-4.18-.66-10.14 1-13.85 4.8-10.73 20.24-1.63 22.64-8.85a1.09.87 60.3 0 0 .05-.32l-.23-17.57a1.84 1.83-61.8 0 0-.28-.94q-1.54-2.52-4.95-2.7c-5.61-.29-15.53-.76-21.37.33q-15.66 2.95-23.08 17.62c-3.96 7.85-4.43 17.7-4.24 26.26a.7.7 0 0 1-.7.72l-10.39-.01q-4.01.04-4.54 3.13a3.44 2.91 54.3 0 0-.04.51q-.04 10.42-.05 13.45c-.02 4.47-.51 8.23 4.79 8.44q2.27.09 9.88-.21a1.33 1.33 0 0 1 1.39 1.34q-.29 28.87-.09 62.9c.03 4.11-1.16 11.06 5.16 11.04q4.32 0 18.51-.01c3.48 0 6.52-.82 6.51-4.67q-.05-22.53.06-69.49a.57.56-2.2 0 1 .53-.56m-206.89-41.86q.07 33.9.02 74.93c-.01 8.58-.87 15.41-10.42 16.23q-10.19.88-12.7-6.96c-1.02-3.19-.72-9.29-.75-12.23-.02-2.68-1.79-3.26-4.27-3.26q-16.21.02-21.57.03-3.19.01-3.46 2.46-.52 4.65.04 13.94c1.29 21.55 15.81 33.06 36.31 34.54 8.81.64 18.55-.14 26.58-4.27q20.84-10.72 21.06-35.04.36-38.77.03-102.98-.02-2.62-.76-3.77-1.15-1.78-3.41-1.79-26.74-.07-56.45-.04-2.96 0-4.32 2.39a1.72 1.66-31.2 0 0-.22.83l.08 20.31a1.23 1.2-56.8 0 0 .09.46q1.35 3.22 4.29 3.26 4.18.06 28.8-.06a1.03 1.02 89.4 0 1 1.03 1.02" vector-effect="non-scaling-stroke"/><path stroke="#2e7173" d="m292.01 434.25-7.19 14.39a1.36 1.35 46 0 0-.02 1.17q2.25 4.85.78 10.38-.19.72.2 1.09a.58.58 0 0 0 .88-.07q4.72-6.55 8.55-16.05a6.75 6.72-43.2 0 0 .16-4.61l-2.01-6.2a.73.73 0 0 0-1.35-.1m-30.21 30.72a.25.24-16.5 0 0 .41.22q7.92-7.19 13.16-14.86a.68.67 29.2 0 0-.29-1l-11.35-4.88a.83.83 0 0 0-1.09.43l-4.32 10.05a.49.48 85.1 0 0 .71.6l3.57-2.35a.81.81 0 0 1 1.24.82l-2.04 10.97" vector-effect="non-scaling-stroke"/><path stroke="#899295" d="M603.36 569.04c.77 2.81 1.85 9.18 5.41 9.29q2.46.08 17.55.05c3.41-.01 6.21-.51 6.19-4.38q-.1-18.09-.2-61.75c-.02-9.37-.94-17.85-7.61-24.87-9.27-9.76-24.3-11.62-38.02-11.25-18.28.5-37.4 5.52-42.2 25.6q-.59 2.46-.24 4.97a3.13 3.13 0 0 0 3.1 2.69h20.95a2.83 2.82 6.2 0 0 2.76-2.21q1.04-4.67 5.68-6.16c7.09-2.27 25.61-4.6 25.51 7.72-.05 6.88-6.13 8.46-11.92 9.36q-14.25 2.19-21.32 3.64c-13.14 2.7-24.99 7.46-29.31 20.44-4.32 13-.26 28.11 12.72 34.54q4.27 2.12 10.05 3.15 23.41 4.14 40.1-11.06a.49.49 0 0 1 .8.23m74.21-81.09c-.49-3.31.48-8.14-3.24-9.58q-.95-.38-6.7-.26-5.4.12-15.15-.11-4.11-.09-5.16 3.43a1.1.99 55.9 0 0-.04.29q.13 74.22.12 128.53c0 4.89-.3 9.04 5.64 9.04q16.99.01 20.19-.15 4.7-.24 4.79-4.45.21-9.66-.1-43.38a.77.77 0 0 1 1.26-.61c4.86 3.93 10.75 7.42 16.72 8.95 15.25 3.89 30.75.22 42.22-10.72 10.66-10.16 14.42-23.03 15.27-37.84 1.63-28.56-13.28-53.58-43.44-55q-15.91-.75-27.87 9.22-3.77 3.14-3.82 3.15a.6.6 0 0 1-.69-.51m119.03 81.88c10.04 8.69 20.88 12.93 34.15 11.31 13.84-1.68 25.39-9.8 32.59-21.63 6.66-10.94 8.26-24.64 7.24-37.74-1.38-17.81-9.87-33.63-25.88-41.4-15.94-7.72-35.75-5.17-48.49 7.84a.67.67 0 0 1-1.15-.44l-.31-6.1a1.93 1.77-61 0 0-.16-.66q-1.25-2.77-3.64-2.78-10.07-.03-20.7-.29c-4.12-.1-5.1 1.54-4.91 5.64q.03.53.01 128.45c0 4.39.39 7.19 5.18 7.25q5.88.09 16.1 0c4.23-.04 7.47.32 8.96-3.49a2.43 2.29 57.3 0 0 .16-.86v-44.72a.51.51 0 0 1 .85-.38M282.65 482.2a4.56 4.56 0 0 0-4.56-4.56h-20.94a4.56 4.56 0 0 0-4.56 4.56v91.42a4.56 4.56 0 0 0 4.56 4.56h20.94a4.56 4.56 0 0 0 4.56-4.56V482.2m207.36 59.9a.48.48 0 0 1-.9-.04q-8.85-28.48-19.27-60.4c-.84-2.59-1.86-3.85-4.72-3.88q-10.29-.13-18.59.09c-3.31.09-6.48-.34-8.25 2.88a1.45 1.43-38.4 0 0-.13 1.09q1.44 5.03 3.05 9.49 7.21 19.98 11.69 31.22c8.33 20.86 11.48 29.59 20.34 52.52q1.6 4.13.62 7.68c-3.65 13.27-13.7 12.1-24.87 11.92a2.47 2.47 0 0 0-2.51 2.45q-.14 17.71-.15 17.88c-.34 4.2 4.67 3.86 7.36 4.1q6.44.57 17.8-.3c16.3-1.25 22.82-11.3 28.18-24.88q7.33-18.56 14.24-37.74 15.33-42.55 22.06-61.95 1.57-4.53 3.12-10.19c1.26-4.63-1.7-6.11-5.97-6.12q-14.45-.05-18.84-.14c-3.23-.07-5.58.84-6.47 4.03q-8.98 32.18-16.39 56.34-.63 2.03-1.4 3.95" vector-effect="non-scaling-stroke"/><path stroke="#2e7173" d="M290.123 410.944a5.97 5.79-24.5 0 0-7.834-2.793 5.97 5.79-24.5 0 0-3.031 7.745 5.97 5.79-24.5 0 0 7.833 2.793 5.97 5.79-24.5 0 0 3.031-7.745" vector-effect="non-scaling-stroke"/><path stroke="#899295" d="m601.12 533.28-3.43 1.5a9.34 8.66 24.5 0 1-1.45.48q-1.41.36-15.5 3.71-5.45 1.29-8.45 3.82c-3.94 3.31-4.89 12.26.09 15.7q2.66 1.85 7.1 1.92c11.28.19 22.7-6.76 22.64-19.39q-.03-7.35-.05-7.39a.73.72-24.6 0 0-.95-.35m77.12-5.14c-.22 13.68 6.1 26.95 21.54 27.2s22.2-12.8 22.42-26.48c.23-13.68-6.09-26.95-21.54-27.2-15.44-.25-22.19 12.8-22.42 26.48m161.44 1.19c.35-13.64-5.83-26.93-21.23-27.33-15.4-.39-22.25 12.56-22.6 26.2s5.83 26.93 21.23 27.33c15.4.39 22.25-12.56 22.6-26.2" vector-effect="non-scaling-stroke"/></g><path fill="#14262c" d="M1024 0v1024H0V0zM614.78 340.56l-73.33 48.23a.65.65 0 0 1-1-.45l-1.77-12.16a.95.79 31.7 0 0-.11-.33q-.08-.15-.24-.24-.26-.16-.5.06-10.68 9.55-19 17.66-29.89 29.13-61.42 61.98a.05.04-69.9 0 0 .03.08q.04 0 .07.01a.4.21 29.4 0 0 .33.01l72.14-56.81a.21.21 0 0 1 .34.21l-1.64 8.86a.37.37 0 0 0 .6.36l24.66-19.42a.65.65 0 0 1 1.05.51v8.9a.48.47 68 0 0 .81.35l59.12-57.64a.11.11 0 0 0-.14-.17m-42.32 8.26a.47.47 0 0 1-.31-.33l-1.19-4.78a.47.47 0 0 0-.9-.03l-1.51 4.69a.47.47 0 0 1-.33.31l-4.78 1.19a.47.47 0 0 0-.03.9l4.69 1.51a.47.47 0 0 1 .31.33l1.19 4.78a.47.47 0 0 0 .9.03l1.51-4.69a.47.47 0 0 1 .33-.31l4.78-1.19a.47.47 0 0 0 .03-.9zm-29.67.21q-.3.23-.37.92-.3 3-.95 5.39a1.07 1.05 3.2 0 1-.88.77l-4.34.63a.68.68 0 0 0-.03 1.34l3.76.7a2.09 2.09 0 0 1 1.69 1.75l.47 3.28a.88.88 0 0 0 1.52.47q.13-.14.29-.37.42-.59.43-.63.78-4.49 4.97-4.96a.41.41 0 0 0 .12-.79l-3.56-1.53a.96.93-88.9 0 1-.5-.54q-1.01-2.74-1.87-6.03a.57.45 66.6 0 0-.75-.4m-23.48 6.31-1.14 6.15a1.2 1.2 0 0 1-.81.92l-5.75 1.87a.58.58 0 0 0 .07 1.13l3.51.65a2.34 2.33 70 0 1 1.07.5q1.78 1.49 2.73 4.86a.78.78 0 0 0 1.41.2l2.7-4.32a2.05 1.98 6.1 0 1 1.07-.83l4.7-1.52a.67.67 0 0 0-.09-1.3l-3.8-.71a3.92 3.91-3.8 0 1-3.02-2.64l-1.63-5.02a.53.53 0 0 0-1.02.06m-4.68 28.97a.62.62 0 0 0 .05-1.22l-4.6-.86a1.61 1.61 0 0 1-1.24-1.08l-.96-2.99a.46.45-42.6 0 0-.85-.03l-1.37 3.18a1.62 1.57-86.7 0 1-.97.89l-3.35 1.09a.62.62 0 0 0 .07 1.2q4.47.89 5.22 5.75a.7.7 0 0 0 1.33.17l1.7-3.95a1.65 1.63-5.6 0 1 .59-.71q1.77-1.18 4.38-1.44m81.24 4.4.53-2.87a1.27 1.26-3.6 0 1 .86-.97l2.25-.73a.54.54 0 0 0-.07-1.05l-2.91-.54a.85.84-89.1 0 1-.68-.71l-.27-1.86a.64.64 0 0 0-1.19-.22q-.49.9-.54 2.34a.95.94 82.5 0 1-.65.86l-1.62.53a.69.69 0 0 0 .24 1.35q3.22-.15 3.11 3.43 0 .02.13.31.07.18.14.28a.37.37 0 0 0 .67-.15m-332.13 48.88a1.53 1.53 0 0 0 .86 1.85l15.21 6.54a1.43 1.42 30 0 0 1.71-.45q1.97-2.65 4.09-6.92 4.63-9.29 9.06-18.41 2.67-5.51 2.74-8.59.2-8.47-4.23-15.92a.77.76 67.6 0 0-.83-.35q-7.75 1.77-14.36 6.31a3.84 3.58-.3 0 0-.83.78q-1.75 2.23-2.05 2.98-6.2 15.41-11.37 32.18m303.48-32.92q-.73 2.45-1.39 5.14c-.92 3.76-4.63 3.51-8.38 4.22a.62.62 0 0 0-.05 1.21q2.98.84 5.33 1.54c3.07.91 3.2 5.14 3.86 7.33a.56.56 0 0 0 1.04.08q1.18-2.46 1.77-4.06c1.07-2.95 5.8-4.31 8.83-5.32a.66.65-47.9 0 0-.06-1.26q-1.73-.37-4.93-1.02c-3.48-.69-4.29-4.53-5.14-7.84a.46.46 0 0 0-.88-.02m-32.04 18.49a.32.32 0 0 1-.2-.19l-1.38-3.9a.32.32 0 0 0-.6.01l-1.33 3.91a.32.32 0 0 1-.19.2l-3.9 1.38a.32.32 0 0 0 .01.6l3.91 1.33a.32.32 0 0 1 .2.19l1.38 3.9a.32.32 0 0 0 .6-.01l1.33-3.91a.32.32 0 0 1 .19-.2l3.9-1.38a.32.32 0 0 0-.01-.6zm-271.22.6c-5.39 1.05-8.25 1.65-10.42 6.3q-3.19 6.84-6.13 15.55a.12.12 0 0 0 .18.14l10.15-6.68a2.4 2.4 0 0 0 .91-1.08l5.84-13.57a.48.48 0 0 0-.53-.66m43.53 53.85q-2.92.18-10.49.01c-2.94-.07-3.98 2.18-3.95 5.12q.09 9.11.06 15.56-.02 4.58 4.28 4.85 3.59.23 10.23-.02a1.02 1.02 0 0 1 1.05.84q.16.85.16 2.53.06 56.6-.12 66.25-.09 5.3 5.31 5.33 17.17.1 18.59.17 2.85.13 4.18-1.03 2.07-1.8 2.07-3.73-.02-34.28.03-69.53a.66.65-90 0 1 .64-.65q8.98-.04 11.71-.14c4.22-.16 7.41-.46 7.28-5.15q-.01-.21.02-16.79a2.31 2.22 32.5 0 0-.25-1.03q-1.26-2.41-3.58-2.52-4.07-.18-15.31.03a.64.64 0 0 1-.65-.6c-.54-8.57-.71-18.51 10.5-19.41q2.31-.18 8.23-.18 3.03 0 4.25-2.43a2.24 2.16 59.8 0 0 .23-.94q.06-5.34-.01-15.4c-.03-3.66-1.49-5.87-5.16-6.06q-7.92-.42-15.76.05c-20.09 1.19-31.85 15.15-32.35 34.79q-.18 7.02-.5 9.43a.75.74-88.1 0 1-.69.65m104.88 25.84q5.32-.37 12.15-.22c3.82.08 6.83-.72 6.77-5q-.11-8.27-.12-17.49a1.88 1.87-59.5 0 0-.23-.9q-1.11-2.06-3.22-2.14-3.46-.13-15.04.01a.86.86 0 0 1-.87-.82c-.21-4.18-.66-10.14 1-13.85 4.8-10.73 20.24-1.63 22.64-8.85a1.09.87 60.3 0 0 .05-.32l-.23-17.57a1.84 1.83-61.8 0 0-.28-.94q-1.54-2.52-4.95-2.7c-5.61-.29-15.53-.76-21.37.33q-15.66 2.95-23.08 17.62c-3.96 7.85-4.43 17.7-4.24 26.26a.7.7 0 0 1-.7.72l-10.39-.01q-4.01.04-4.54 3.13a3.44 2.91 54.3 0 0-.04.51q-.04 10.42-.05 13.45c-.02 4.47-.51 8.23 4.79 8.44q2.27.09 9.88-.21a1.33 1.33 0 0 1 1.39 1.34q-.29 28.87-.09 62.9c.03 4.11-1.16 11.06 5.16 11.04q4.32 0 18.51-.01c3.48 0 6.52-.82 6.51-4.67q-.05-22.53.06-69.49a.57.56-2.2 0 1 .53-.56m-206.89-41.86q.07 33.9.02 74.93c-.01 8.58-.87 15.41-10.42 16.23q-10.19.88-12.7-6.96c-1.02-3.19-.72-9.29-.75-12.23-.02-2.68-1.79-3.26-4.27-3.26q-16.21.02-21.57.03-3.19.01-3.46 2.46-.52 4.65.04 13.94c1.29 21.55 15.81 33.06 36.31 34.54 8.81.64 18.55-.14 26.58-4.27q20.84-10.72 21.06-35.04.36-38.77.03-102.98-.02-2.62-.76-3.77-1.15-1.78-3.41-1.79-26.74-.07-56.45-.04-2.96 0-4.32 2.39a1.72 1.66-31.2 0 0-.22.83l.08 20.31a1.23 1.2-56.8 0 0 .09.46q1.35 3.22 4.29 3.26 4.18.06 28.8-.06a1.03 1.02 89.4 0 1 1.03 1.02m86.53-27.34-7.19 14.39a1.36 1.35 46 0 0-.02 1.17q2.25 4.85.78 10.38-.19.72.2 1.09a.58.58 0 0 0 .88-.07q4.72-6.55 8.55-16.05a6.75 6.72-43.2 0 0 .16-4.61l-2.01-6.2a.73.73 0 0 0-1.35-.1m-30.21 30.72a.25.24-16.5 0 0 .41.22q7.92-7.19 13.16-14.86a.68.67 29.2 0 0-.29-1l-11.35-4.88a.83.83 0 0 0-1.09.43l-4.32 10.05a.49.48 85.1 0 0 .71.6l3.57-2.35a.81.81 0 0 1 1.24.82zm341.56 104.07c.77 2.81 1.85 9.18 5.41 9.29q2.46.08 17.55.05c3.41-.01 6.21-.51 6.19-4.38q-.1-18.09-.2-61.75c-.02-9.37-.94-17.85-7.61-24.87-9.27-9.76-24.3-11.62-38.02-11.25-18.28.5-37.4 5.52-42.2 25.6q-.59 2.46-.24 4.97a3.13 3.13 0 0 0 3.1 2.69h20.95a2.83 2.82 6.2 0 0 2.76-2.21q1.04-4.67 5.68-6.16c7.09-2.27 25.61-4.6 25.51 7.72-.05 6.88-6.13 8.46-11.92 9.36q-14.25 2.19-21.32 3.64c-13.14 2.7-24.99 7.46-29.31 20.44-4.32 13-.26 28.11 12.72 34.54q4.27 2.12 10.05 3.15 23.41 4.14 40.1-11.06a.49.49 0 0 1 .8.23m74.21-81.09c-.49-3.31.48-8.14-3.24-9.58q-.95-.38-6.7-.26-5.4.12-15.15-.11-4.11-.09-5.16 3.43a1.1.99 55.9 0 0-.04.29q.13 74.22.12 128.53c0 4.89-.3 9.04 5.64 9.04q16.99.01 20.19-.15 4.7-.24 4.79-4.45.21-9.66-.1-43.38a.77.77 0 0 1 1.26-.61c4.86 3.93 10.75 7.42 16.72 8.95 15.25 3.89 30.75.22 42.22-10.72 10.66-10.16 14.42-23.03 15.27-37.84 1.63-28.56-13.28-53.58-43.44-55q-15.91-.75-27.87 9.22-3.77 3.14-3.82 3.15a.6.6 0 0 1-.69-.51m119.03 81.88c10.04 8.69 20.88 12.93 34.15 11.31 13.84-1.68 25.39-9.8 32.59-21.63 6.66-10.94 8.26-24.64 7.24-37.74-1.38-17.81-9.87-33.63-25.88-41.4-15.94-7.72-35.75-5.17-48.49 7.84a.67.67 0 0 1-1.15-.44l-.31-6.1a1.93 1.77-61 0 0-.16-.66q-1.25-2.77-3.64-2.78-10.07-.03-20.7-.29c-4.12-.1-5.1 1.54-4.91 5.64q.03.53.01 128.45c0 4.39.39 7.19 5.18 7.25q5.88.09 16.1 0c4.23-.04 7.47.32 8.96-3.49a2.43 2.29 57.3 0 0 .16-.86v-44.72a.51.51 0 0 1 .85-.38M282.65 482.2a4.56 4.56 0 0 0-4.56-4.56h-20.94a4.56 4.56 0 0 0-4.56 4.56v91.42a4.56 4.56 0 0 0 4.56 4.56h20.94a4.56 4.56 0 0 0 4.56-4.56zm207.36 59.9a.48.48 0 0 1-.9-.04q-8.85-28.48-19.27-60.4c-.84-2.59-1.86-3.85-4.72-3.88q-10.29-.13-18.59.09c-3.31.09-6.48-.34-8.25 2.88a1.45 1.43-38.4 0 0-.13 1.09q1.44 5.03 3.05 9.49 7.21 19.98 11.69 31.22c8.33 20.86 11.48 29.59 20.34 52.52q1.6 4.13.62 7.68c-3.65 13.27-13.7 12.1-24.87 11.92a2.47 2.47 0 0 0-2.51 2.45q-.14 17.71-.15 17.88c-.34 4.2 4.67 3.86 7.36 4.1q6.44.57 17.8-.3c16.3-1.25 22.82-11.3 28.18-24.88q7.33-18.56 14.24-37.74 15.33-42.55 22.06-61.95 1.57-4.53 3.12-10.19c1.26-4.63-1.7-6.11-5.97-6.12q-14.45-.05-18.84-.14c-3.23-.07-5.58.84-6.47 4.03q-8.98 32.18-16.39 56.34-.63 2.03-1.4 3.95"/><path fill="#47bcba" d="m614.92 340.73-59.12 57.64a.48.47 68 0 1-.81-.35v-8.9a.65.65 0 0 0-1.05-.51l-24.66 19.42a.37.37 0 0 1-.6-.36l1.64-8.86a.21.21 0 0 0-.34-.21l-72.14 56.81a.4.21 29.4 0 1-.33-.01q-.03-.01-.07-.01a.05.04-69.9 0 1-.03-.08q31.53-32.85 61.42-61.98 8.32-8.11 19-17.66.24-.22.5-.06.16.09.24.24a.95.79 31.7 0 1 .11.33l1.77 12.16a.65.65 0 0 0 1 .45l73.33-48.23a.11.11 0 0 1 .14.17m-42.46 8.09 4.69 1.51a.47.47 0 0 1-.03.9l-4.78 1.19a.47.47 0 0 0-.33.31l-1.51 4.69a.47.47 0 0 1-.9-.03l-1.19-4.78a.47.47 0 0 0-.31-.33l-4.69-1.51a.47.47 0 0 1 .03-.9l4.78-1.19a.47.47 0 0 0 .33-.31l1.51-4.69a.47.47 0 0 1 .9.03l1.19 4.78a.47.47 0 0 0 .31.33m-29.67.21a.57.45 66.6 0 1 .75.4q.86 3.29 1.87 6.03a.96.93-88.9 0 0 .5.54l3.56 1.53a.41.41 0 0 1-.12.79q-4.19.47-4.97 4.96-.01.04-.43.63-.16.23-.29.37a.88.88 0 0 1-1.52-.47l-.47-3.28a2.09 2.09 0 0 0-1.69-1.75l-3.76-.7a.68.68 0 0 1 .03-1.34l4.34-.63a1.07 1.05 3.2 0 0 .88-.77q.65-2.39.95-5.39.07-.69.37-.92m-22.46 6.25 1.63 5.02a3.92 3.91-3.8 0 0 3.02 2.64l3.8.71a.67.67 0 0 1 .09 1.3l-4.7 1.52a2.05 1.98 6.1 0 0-1.07.83l-2.7 4.32a.78.78 0 0 1-1.41-.2q-.95-3.37-2.73-4.86a2.34 2.33 70 0 0-1.07-.5l-3.51-.65a.58.58 0 0 1-.07-1.13l5.75-1.87a1.2 1.2 0 0 0 .81-.92l1.14-6.15a.53.53 0 0 1 1.02-.06m-5.7 29.03q-2.61.26-4.38 1.44a1.65 1.63-5.6 0 0-.59.71l-1.7 3.95a.7.7 0 0 1-1.33-.17q-.75-4.86-5.22-5.75a.62.62 0 0 1-.07-1.2l3.35-1.09a1.62 1.57-86.7 0 0 .97-.89l1.37-3.18a.46.45-42.6 0 1 .85.03l.96 2.99a1.61 1.61 0 0 0 1.24 1.08l4.6.86a.62.62 0 0 1-.05 1.22m80.57 4.55q-.07-.1-.14-.28-.13-.29-.13-.31.11-3.58-3.11-3.43a.69.69 0 0 1-.24-1.35l1.62-.53a.95.94 82.5 0 0 .65-.86q.05-1.44.54-2.34a.64.64 0 0 1 1.19.22l.27 1.86a.85.84-89.1 0 0 .68.71l2.91.54a.54.54 0 0 1 .07 1.05l-2.25.73a1.27 1.26-3.6 0 0-.86.97l-.53 2.87a.37.37 0 0 1-.67.15m-331.46 48.73q5.17-16.77 11.37-32.18.3-.75 2.05-2.98a3.84 3.58-.3 0 1 .83-.78q6.61-4.54 14.36-6.31a.77.76 67.6 0 1 .83.35q4.43 7.45 4.23 15.92-.07 3.08-2.74 8.59-4.43 9.12-9.06 18.41-2.12 4.27-4.09 6.92a1.43 1.42 30 0 1-1.71.45l-15.21-6.54a1.53 1.53 0 0 1-.86-1.85m26.382-26.646a5.97 5.79-24.5 0 0-7.833-2.793 5.97 5.79-24.5 0 0-3.031 7.745 5.97 5.79-24.5 0 0 7.833 2.793 5.97 5.79-24.5 0 0 3.031-7.745m277.098-6.274a.46.46 0 0 1 .88.02c.85 3.31 1.66 7.15 5.14 7.84q3.2.65 4.93 1.02a.66.65-47.9 0 1 .06 1.26c-3.03 1.01-7.76 2.37-8.83 5.32q-.59 1.6-1.77 4.06a.56.56 0 0 1-1.04-.08c-.66-2.19-.79-6.42-3.86-7.33q-2.35-.7-5.33-1.54a.62.62 0 0 1 .05-1.21c3.75-.71 7.46-.46 8.38-4.22q.66-2.69 1.39-5.14"/><ellipse fill="#14262c" rx="5.97" ry="5.79" transform="rotate(-24.5 1094.394 -448.891)"/><path fill="#47bcba" d="m535.18 423.16 3.91 1.33a.32.32 0 0 1 .01.6l-3.9 1.38a.32.32 0 0 0-.19.2l-1.33 3.91a.32.32 0 0 1-.6.01l-1.38-3.9a.32.32 0 0 0-.2-.19l-3.91-1.33a.32.32 0 0 1-.01-.6l3.9-1.38a.32.32 0 0 0 .19-.2l1.33-3.91a.32.32 0 0 1 .6-.01l1.38 3.9a.32.32 0 0 0 .2.19m-270.69 1.26-5.84 13.57a2.4 2.4 0 0 1-.91 1.08l-10.15 6.68a.12.12 0 0 1-.18-.14q2.94-8.71 6.13-15.55c2.17-4.65 5.03-5.25 10.42-6.3a.48.48 0 0 1 .53.66"/><path fill="#fefefe" d="M308.18 476.96q.32-2.41.5-9.43c.5-19.64 12.26-33.6 32.35-34.79q7.84-.47 15.76-.05c3.67.19 5.13 2.4 5.16 6.06q.07 10.06.01 15.4a2.24 2.16 59.8 0 1-.23.94q-1.22 2.43-4.25 2.43-5.92 0-8.23.18c-11.21.9-11.04 10.84-10.5 19.41a.64.64 0 0 0 .65.6q11.24-.21 15.31-.03 2.32.11 3.58 2.52a2.31 2.22 32.5 0 1 .25 1.03q-.03 16.58-.02 16.79c.13 4.69-3.06 4.99-7.28 5.15q-2.73.1-11.71.14a.66.65-90 0 0-.64.65q-.05 35.25-.03 69.53 0 1.93-2.07 3.73-1.33 1.16-4.18 1.03-1.42-.07-18.59-.17-5.4-.03-5.31-5.33.18-9.65.12-66.25 0-1.68-.16-2.53a1.02 1.02 0 0 0-1.05-.84q-6.64.25-10.23.02-4.3-.27-4.28-4.85.03-6.45-.06-15.56c-.03-2.94 1.01-5.19 3.95-5.12q7.57.17 10.49-.01a.75.74-88.1 0 0 .69-.65m104.19 26.49a.57.56-2.2 0 0-.53.56q-.11 46.96-.06 69.49c.01 3.85-3.03 4.67-6.51 4.67q-14.19.01-18.51.01c-6.32.02-5.13-6.93-5.16-11.04q-.2-34.03.09-62.9a1.33 1.33 0 0 0-1.39-1.34q-7.61.3-9.88.21c-5.3-.21-4.81-3.97-4.79-8.44q.01-3.03.05-13.45a3.44 2.91 54.3 0 1 .04-.51q.53-3.09 4.54-3.13l10.39.01a.7.7 0 0 0 .7-.72c-.19-8.56.28-18.41 4.24-26.26q7.42-14.67 23.08-17.62c5.84-1.09 15.76-.62 21.37-.33q3.41.18 4.95 2.7a1.84 1.83-61.8 0 1 .28.94l.23 17.57a1.09.87 60.3 0 1-.05.32c-2.4 7.22-17.84-1.88-22.64 8.85-1.66 3.71-1.21 9.67-1 13.85a.86.86 0 0 0 .87.82q11.58-.14 15.04-.01 2.11.08 3.22 2.14a1.88 1.87-59.5 0 1 .23.9q.01 9.22.12 17.49c.06 4.28-2.95 5.08-6.77 5q-6.83-.15-12.15.22m-206.89-41.86a1.03 1.02 89.4 0 0-1.03-1.02q-24.62.12-28.8.06-2.94-.04-4.29-3.26a1.23 1.2-56.8 0 1-.09-.46l-.08-20.31a1.72 1.66-31.2 0 1 .22-.83q1.36-2.39 4.32-2.39 29.71-.03 56.45.04 2.26.01 3.41 1.79.74 1.15.76 3.77.33 64.21-.03 102.98-.22 24.32-21.06 35.04c-8.03 4.13-17.77 4.91-26.58 4.27-20.5-1.48-35.02-12.99-36.31-34.54q-.56-9.29-.04-13.94.27-2.45 3.46-2.46 5.36-.01 21.57-.03c2.48 0 4.25.58 4.27 3.26.03 2.94-.27 9.04.75 12.23q2.51 7.84 12.7 6.96c9.55-.82 10.41-7.65 10.42-16.23q.05-41.03-.02-74.93"/><path fill="#47bcba" d="M292.01 434.25a.73.73 0 0 1 1.35.1l2.01 6.2a6.75 6.72-43.2 0 1-.16 4.61q-3.83 9.5-8.55 16.05a.58.58 0 0 1-.88.07q-.39-.37-.2-1.09 1.47-5.53-.78-10.38a1.36 1.35 46 0 1 .02-1.17zm-30.21 30.72 2.04-10.97a.81.81 0 0 0-1.24-.82l-3.57 2.35a.49.48 85.1 0 1-.71-.6l4.32-10.05a.83.83 0 0 1 1.09-.43l11.35 4.88a.68.67 29.2 0 1 .29 1q-5.24 7.67-13.16 14.86a.25.24-16.5 0 1-.41-.22"/><path fill="#fefefe" d="M603.36 569.04a.49.49 0 0 0-.8-.23q-16.69 15.2-40.1 11.06-5.78-1.03-10.05-3.15c-12.98-6.43-17.04-21.54-12.72-34.54 4.32-12.98 16.17-17.74 29.31-20.44q7.07-1.45 21.32-3.64c5.79-.9 11.87-2.48 11.92-9.36.1-12.32-18.42-9.99-25.51-7.72q-4.64 1.49-5.68 6.16a2.83 2.82 6.2 0 1-2.76 2.21h-20.95a3.13 3.13 0 0 1-3.1-2.69q-.35-2.51.24-4.97c4.8-20.08 23.92-25.1 42.2-25.6 13.72-.37 28.75 1.49 38.02 11.25 6.67 7.02 7.59 15.5 7.61 24.87q.1 43.66.2 61.75c.02 3.87-2.78 4.37-6.19 4.38q-15.09.03-17.55-.05c-3.56-.11-4.64-6.48-5.41-9.29m-2.24-35.76-3.43 1.5a9.34 8.66 24.5 0 1-1.45.48q-1.41.36-15.5 3.71-5.45 1.29-8.45 3.82c-3.94 3.31-4.89 12.26.09 15.7q2.66 1.85 7.1 1.92c11.28.19 22.7-6.76 22.64-19.39q-.03-7.35-.05-7.39a.73.72-24.6 0 0-.95-.35m77.14-44.82q.05-.01 3.82-3.15 11.96-9.97 27.87-9.22c30.16 1.42 45.07 26.44 43.44 55-.85 14.81-4.61 27.68-15.27 37.84-11.47 10.94-26.97 14.61-42.22 10.72-5.97-1.53-11.86-5.02-16.72-8.95a.77.77 0 0 0-1.26.61q.31 33.72.1 43.38-.09 4.21-4.79 4.45-3.2.16-20.19.15c-5.94 0-5.64-4.15-5.64-9.04q.01-54.31-.12-128.53a1.1.99 55.9 0 1 .04-.29q1.05-3.52 5.16-3.43 9.75.23 15.15.11 5.75-.12 6.7.26c3.72 1.44 2.75 6.27 3.24 9.58a.6.6 0 0 0 .69.51m-.02 39.68c-.22 13.68 6.1 26.95 21.54 27.2s22.2-12.8 22.42-26.48c.23-13.68-6.09-26.95-21.54-27.2-15.44-.25-22.19 12.8-22.42 26.48m118.36 41.69a.51.51 0 0 0-.85.38v44.72a2.43 2.29 57.3 0 1-.16.86c-1.49 3.81-4.73 3.45-8.96 3.49q-10.22.09-16.1 0c-4.79-.06-5.18-2.86-5.18-7.25q.02-127.92-.01-128.45c-.19-4.1.79-5.74 4.91-5.64q10.63.26 20.7.29 2.39.01 3.64 2.78a1.93 1.77-61 0 1 .16.66l.31 6.1a.67.67 0 0 0 1.15.44c12.74-13.01 32.55-15.56 48.49-7.84 16.01 7.77 24.5 23.59 25.88 41.4 1.02 13.1-.58 26.8-7.24 37.74-7.2 11.83-18.75 19.95-32.59 21.63-13.27 1.62-24.11-2.62-34.15-11.31m43.08-40.5c.35-13.64-5.83-26.93-21.23-27.33-15.4-.39-22.25 12.56-22.6 26.2s5.83 26.93 21.23 27.33c15.4.39 22.25-12.56 22.6-26.2"/><rect width="30.06" height="100.54" x="252.59" y="477.64" fill="#fefefe" rx="4.56"/><path fill="#fefefe" d="M490.01 542.1q.77-1.92 1.4-3.95 7.41-24.16 16.39-56.34c.89-3.19 3.24-4.1 6.47-4.03q4.39.09 18.84.14c4.27.01 7.23 1.49 5.97 6.12q-1.55 5.66-3.12 10.19-6.73 19.4-22.06 61.95-6.91 19.18-14.24 37.74c-5.36 13.58-11.88 23.63-28.18 24.88q-11.36.87-17.8.3c-2.69-.24-7.7.1-7.36-4.1q.01-.17.15-17.88a2.47 2.47 0 0 1 2.51-2.45c11.17.18 21.22 1.35 24.87-11.92q.98-3.55-.62-7.68c-8.86-22.93-12.01-31.66-20.34-52.52q-4.48-11.24-11.69-31.22-1.61-4.46-3.05-9.49a1.45 1.43-38.4 0 1 .13-1.09c1.77-3.22 4.94-2.79 8.25-2.88q8.3-.22 18.59-.09c2.86.03 3.88 1.29 4.72 3.88q10.42 31.92 19.27 60.4a.48.48 0 0 0 .9.04"/><path fill="#14262c" d="M700.66 501.66c15.45.25 21.77 13.52 21.54 27.2-.22 13.68-6.98 26.73-22.42 26.48s-21.76-13.52-21.54-27.2c.23-13.68 6.98-26.73 22.42-26.48m139.02 27.67c-.35 13.64-7.2 26.59-22.6 26.2-15.4-.4-21.58-13.69-21.23-27.33s7.2-26.59 22.6-26.2c15.4.4 21.58 13.69 21.23 27.33m-237.61 4.3q.02.04.05 7.39c.06 12.63-11.36 19.58-22.64 19.39q-4.44-.07-7.1-1.92c-4.98-3.44-4.03-12.39-.09-15.7q3-2.53 8.45-3.82 14.09-3.35 15.5-3.71a9.34 8.66 24.5 0 0 1.45-.48l3.43-1.5a.73.72-24.6 0 1 .95.35"/></svg>